<?xml version="1.0" encoding="UTF-8" standalone="no"?>
<!DOCTYPE svg PUBLIC "-//W3C//DTD SVG 1.1//EN" "http://www.w3.org/Graphics/SVG/1.1/DTD/svg11.dtd">
<svg width="100%" height="100%" viewBox="0 0 476 1518" version="1.1" xmlns="http://www.w3.org/2000/svg" xmlns:xlink="http://www.w3.org/1999/xlink" xml:space="preserve" xmlns:serif="http://www.serif.com/" style="fill-rule:evenodd;clip-rule:evenodd;stroke-linecap:round;stroke-linejoin:round;stroke-miterlimit:1.5;">
    <rect id="Panel" x="0" y="0" width="475.984" height="1517.72" style="fill:none;"/>
    <clipPath id="_clip1">
        <rect id="Panel1" serif:id="Panel" x="0" y="0" width="475.984" height="1517.72"/>
    </clipPath>
    <g clip-path="url(#_clip1)">
        <g id="SolderingMask">
            <g transform="matrix(0.922516,0,0,0.72382,-14.758,-64.6463)">
                <path d="M156.831,138.266C156.831,157.178 144.784,172.533 129.945,172.533L94.096,172.533C79.257,172.533 67.21,157.178 67.21,138.266C67.21,119.353 79.257,103.999 94.096,103.999L129.945,103.999C144.784,103.999 156.831,119.353 156.831,138.266Z" style="fill:rgb(199,199,199);"/>
            </g>
            <g transform="matrix(0.922516,0,0,0.72382,284.061,-64.6463)">
                <path d="M156.831,138.266C156.831,157.178 144.784,172.533 129.945,172.533L94.096,172.533C79.257,172.533 67.21,157.178 67.21,138.266C67.21,119.353 79.257,103.999 94.096,103.999L129.945,103.999C144.784,103.999 156.831,119.353 156.831,138.266Z" style="fill:rgb(199,199,199);"/>
            </g>
            <g transform="matrix(0.922516,0,0,0.72382,-14.758,1382.2)">
                <path d="M156.831,138.266C156.831,157.178 144.784,172.533 129.945,172.533L94.096,172.533C79.257,172.533 67.21,157.178 67.21,138.266C67.21,119.353 79.257,103.999 94.096,103.999L129.945,103.999C144.784,103.999 156.831,119.353 156.831,138.266Z" style="fill:rgb(199,199,199);"/>
            </g>
            <g transform="matrix(0.922516,0,0,0.72382,284.061,1382.2)">
                <path d="M156.831,138.266C156.831,157.178 144.784,172.533 129.945,172.533L94.096,172.533C79.257,172.533 67.21,157.178 67.21,138.266C67.21,119.353 79.257,103.999 94.096,103.999L129.945,103.999C144.784,103.999 156.831,119.353 156.831,138.266Z" style="fill:rgb(199,199,199);"/>
            </g>
        </g>
        <g id="Drill">
            <g transform="matrix(4.20074,0,0,3.2947,-333.879,-256.711)">
                <path d="M109.003,88.671C109.003,91.837 106.988,94.407 104.505,94.407L96.632,94.407C94.149,94.407 92.134,91.837 92.134,88.671C92.134,85.505 94.149,82.935 96.632,82.935L104.505,82.935C106.988,82.935 109.003,85.505 109.003,88.671Z"/>
            </g>
            <g transform="matrix(4.20074,0,0,3.2947,-35.0604,-256.711)">
                <path d="M109.003,88.671C109.003,91.837 106.988,94.407 104.505,94.407L96.632,94.407C94.149,94.407 92.134,91.837 92.134,88.671C92.134,85.505 94.149,82.935 96.632,82.935L104.505,82.935C106.988,82.935 109.003,85.505 109.003,88.671Z"/>
            </g>
            <g transform="matrix(4.20074,0,0,3.2947,-333.879,1190.14)">
                <path d="M109.003,88.671C109.003,91.837 106.988,94.407 104.505,94.407L96.632,94.407C94.149,94.407 92.134,91.837 92.134,88.671C92.134,85.505 94.149,82.935 96.632,82.935L104.505,82.935C106.988,82.935 109.003,85.505 109.003,88.671Z"/>
            </g>
            <g transform="matrix(4.20074,0,0,3.2947,-35.0604,1190.14)">
                <path d="M109.003,88.671C109.003,91.837 106.988,94.407 104.505,94.407L96.632,94.407C94.149,94.407 92.134,91.837 92.134,88.671C92.134,85.505 94.149,82.935 96.632,82.935L104.505,82.935C106.988,82.935 109.003,85.505 109.003,88.671Z"/>
            </g>
            <g transform="matrix(1.23608,0,0,1.23608,-22.1477,-92.922)">
                <circle cx="149.302" cy="299.722" r="35.832"/>
            </g>
            <g transform="matrix(1.01021,0,0,1.01021,21.8957,-53.3433)">
                <circle cx="296.337" cy="201.287" r="18.122"/>
            </g>
            <g transform="matrix(0.918472,0,0,0.709677,42.6462,43.5366)">
                <rect x="368.825" y="131.693" width="54.01" height="36.614"/>
            </g>
            <g transform="matrix(1.60494,0,0,1.60494,-182.976,-252.026)">
                <circle cx="363.484" cy="389.95" r="23.917"/>
            </g>
            <g transform="matrix(1.60494,0,0,1.60494,-512.504,311.359)">
                <circle cx="363.484" cy="389.95" r="23.917"/>
            </g>
            <g transform="matrix(1.50617,0,0,1.50617,-365.191,349.873)">
                <circle cx="363.484" cy="389.95" r="23.917"/>
            </g>
            <g transform="matrix(0.518519,0,0,0.518519,18.7629,681.493)">
                <circle cx="363.484" cy="389.95" r="23.917"/>
            </g>
            <g transform="matrix(1.50617,0,0,1.50617,-253.765,349.873)">
                <circle cx="363.484" cy="389.95" r="23.917"/>
            </g>
            <g transform="matrix(0.518519,0,0,0.518519,130.188,681.493)">
                <circle cx="363.484" cy="389.95" r="23.917"/>
            </g>
            <g transform="matrix(1.60494,0,0,1.60494,-178.252,311.359)">
                <circle cx="363.484" cy="389.95" r="23.917"/>
            </g>
            <g transform="matrix(1.60494,0,0,1.60494,-512.504,499.155)">
                <circle cx="363.484" cy="389.95" r="23.917"/>
            </g>
            <g transform="matrix(1.60494,0,0,1.60494,-401.09,499.155)">
                <circle cx="363.484" cy="389.95" r="23.917"/>
            </g>
            <g transform="matrix(1.60494,0,0,1.60494,-289.665,499.155)">
                <circle cx="363.484" cy="389.95" r="23.917"/>
            </g>
            <g transform="matrix(1.60494,0,0,1.60494,-178.252,499.155)">
                <circle cx="363.484" cy="389.95" r="23.917"/>
            </g>
            <g transform="matrix(1.60494,0,0,1.60494,-512.504,686.95)">
                <circle cx="363.484" cy="389.95" r="23.917"/>
            </g>
            <g transform="matrix(1.60494,0,0,1.60494,-401.09,686.95)">
                <circle cx="363.484" cy="389.95" r="23.917"/>
            </g>
            <g transform="matrix(1.60494,0,0,1.60494,-289.665,686.95)">
                <circle cx="363.484" cy="389.95" r="23.917"/>
            </g>
            <g transform="matrix(1.60494,0,0,1.60494,-178.252,686.95)">
                <circle cx="363.484" cy="389.95" r="23.917"/>
            </g>
            <g transform="matrix(1.23608,0,0,1.23608,53.4428,222.432)">
                <circle cx="149.302" cy="299.722" r="35.832"/>
            </g>
        </g>
        <g id="PCB_Dimension" transform="matrix(3.50508,0,0,8.68153,-276.506,-10326.5)">
            <g id="Document">
                <rect id="PCB_Dimension1" serif:id="PCB_Dimension" x="80.572" y="1203.09" width="132.429" height="147.612" style="fill:none;stroke:black;stroke-width:0.18px;"/>
            </g>
        </g>
        <g id="Outline">
            <rect x="0" y="0" width="475.984" height="1517.72" style="fill:none;stroke:black;stroke-width:3px;"/>
        </g>
    </g>
</svg>
