<?xml version="1.0" encoding="UTF-8" standalone="no"?>
<!DOCTYPE svg PUBLIC "-//W3C//DTD SVG 1.1//EN" "http://www.w3.org/Graphics/SVG/1.1/DTD/svg11.dtd">
<svg width="100%" height="100%" viewBox="0 0 476 1518" version="1.1" xmlns="http://www.w3.org/2000/svg" xmlns:xlink="http://www.w3.org/1999/xlink" xml:space="preserve" xmlns:serif="http://www.serif.com/" style="fill-rule:evenodd;clip-rule:evenodd;stroke-linecap:round;stroke-linejoin:round;stroke-miterlimit:1.5;">
    <rect id="Panel" x="0" y="0" width="475.984" height="1517.72" style="fill:none;"/>
    <clipPath id="_clip1">
        <rect id="Panel1" serif:id="Panel" x="0" y="0" width="475.984" height="1517.72"/>
    </clipPath>
    <g clip-path="url(#_clip1)">
        <g id="SolderingMask">
            <path d="M129.921,35.433C129.921,49.122 118.807,60.236 105.118,60.236L72.047,60.236C58.358,60.236 47.244,49.122 47.244,35.433C47.244,21.744 58.358,10.63 72.047,10.63L105.118,10.63C118.807,10.63 129.921,21.744 129.921,35.433Z" style="fill:#c7c7c7;"/>
            <path d="M428.74,35.433C428.74,49.122 417.626,60.236 403.937,60.236L370.866,60.236C357.177,60.236 346.063,49.122 346.063,35.433C346.063,21.744 357.177,10.63 370.866,10.63L403.937,10.63C417.626,10.63 428.74,21.744 428.74,35.433Z" style="fill:#c7c7c7;"/>
            <path d="M129.921,1482.28C129.921,1495.97 118.807,1507.09 105.118,1507.09L72.047,1507.09C58.358,1507.09 47.244,1495.97 47.244,1482.28C47.244,1468.59 58.358,1457.48 72.047,1457.48L105.118,1457.48C118.807,1457.48 129.921,1468.59 129.921,1482.28Z" style="fill:#c7c7c7;"/>
            <path d="M428.74,1482.28C428.74,1495.97 417.626,1507.09 403.937,1507.09L370.866,1507.09C357.177,1507.09 346.063,1495.97 346.063,1482.28C346.063,1468.59 357.177,1457.48 370.866,1457.48L403.937,1457.48C417.626,1457.48 428.74,1468.59 428.74,1482.28Z" style="fill:#c7c7c7;"/>
        </g>
        <g id="Drill">
            <path d="M124.016,35.433C124.016,45.863 115.548,54.331 105.118,54.331L72.047,54.331C61.617,54.331 53.15,45.863 53.15,35.433C53.15,25.003 61.617,16.535 72.047,16.535L105.118,16.535C115.548,16.535 124.016,25.003 124.016,35.433Z"/>
            <path d="M422.835,35.433C422.835,45.863 414.367,54.331 403.937,54.331L370.866,54.331C360.436,54.331 351.969,45.863 351.969,35.433C351.969,25.003 360.436,16.535 370.866,16.535L403.937,16.535C414.367,16.535 422.835,25.003 422.835,35.433Z"/>
            <path d="M124.016,1482.28C124.016,1492.71 115.548,1501.18 105.118,1501.18L72.047,1501.18C61.617,1501.18 53.15,1492.71 53.15,1482.28C53.15,1471.85 61.617,1463.39 72.047,1463.39L105.118,1463.39C115.548,1463.39 124.016,1471.85 124.016,1482.28Z"/>
            <path d="M422.835,1482.28C422.835,1492.71 414.367,1501.18 403.937,1501.18L370.866,1501.18C360.436,1501.18 351.969,1492.71 351.969,1482.28C351.969,1471.85 360.436,1463.39 370.866,1463.39L403.937,1463.39C414.367,1463.39 422.835,1471.85 422.835,1482.28Z"/>
            <circle cx="162.402" cy="277.559" r="44.291"/>
            <circle cx="321.26" cy="150" r="18.307"/>
            <rect x="381.402" y="136.996" width="49.606" height="25.984"/>
            <circle cx="400.394" cy="373.819" r="38.386"/>
            <circle cx="70.866" cy="937.205" r="38.386"/>
            <circle cx="182.28" cy="937.205" r="36.024"/>
            <circle cx="207.236" cy="883.689" r="12.402"/>
            <circle cx="293.705" cy="937.205" r="36.024"/>
            <circle cx="318.661" cy="883.689" r="12.402"/>
            <circle cx="405.118" cy="937.205" r="38.386"/>
            <circle cx="70.866" cy="1125" r="38.386"/>
            <circle cx="182.28" cy="1125" r="38.386"/>
            <circle cx="293.705" cy="1125" r="38.386"/>
            <circle cx="405.118" cy="1125" r="38.386"/>
            <circle cx="70.866" cy="1312.8" r="38.386"/>
            <circle cx="182.28" cy="1312.8" r="38.386"/>
            <circle cx="293.705" cy="1312.8" r="38.386"/>
            <circle cx="405.118" cy="1312.8" r="38.386"/>
            <circle cx="237.992" cy="592.913" r="44.291"/>
        </g>
        <g id="Document">
            <rect id="PCB_Dimension" x="5.906" y="118.11" width="464.173" height="1281.5" style="fill:none;stroke:#000;stroke-width:1.18px;"/>
        </g>
        <g id="Outline">
            <rect x="0" y="0" width="475.984" height="1517.72" style="fill:none;stroke:#000;stroke-width:3px;"/>
        </g>
    </g>
</svg>
